<mxfile host="app.diagrams.net" agent="Mozilla/5.0 (X11; Linux x86_64) AppleWebKit/537.36 (KHTML, like Gecko) Chrome/129.0.0.0 Safari/537.36" version="26.0.5">
  <diagram name="Page-1" id="10a91c8b-09ff-31b1-d368-03940ed4cc9e">
    <mxGraphModel dx="1195" dy="628" grid="1" gridSize="10" guides="1" tooltips="1" connect="1" arrows="1" fold="1" page="1" pageScale="1" pageWidth="1100" pageHeight="850" background="none" math="0" shadow="0">
      <root>
        <mxCell id="0" />
        <mxCell id="1" parent="0" />
        <mxCell id="TmrtS8XoBHmU19au0Blr-1" value="PIPE" style="ellipse;whiteSpace=wrap;html=1;aspect=fixed;" parent="1" vertex="1">
          <mxGeometry x="580" y="100" width="40" height="40" as="geometry" />
        </mxCell>
        <mxCell id="-QrWi2uMpiPbB-rdadxz-1" value="" style="endArrow=none;html=1;rounded=0;entryX=0;entryY=1;entryDx=0;entryDy=0;exitX=1;exitY=0;exitDx=0;exitDy=0;" parent="1" source="-QrWi2uMpiPbB-rdadxz-2" target="TmrtS8XoBHmU19au0Blr-1" edge="1">
          <mxGeometry width="50" height="50" relative="1" as="geometry">
            <mxPoint x="560" y="200" as="sourcePoint" />
            <mxPoint x="630" y="300" as="targetPoint" />
          </mxGeometry>
        </mxCell>
        <mxCell id="-QrWi2uMpiPbB-rdadxz-2" value="CMD" style="ellipse;whiteSpace=wrap;html=1;aspect=fixed;" parent="1" vertex="1">
          <mxGeometry x="500" y="180" width="40" height="40" as="geometry" />
        </mxCell>
        <mxCell id="-QrWi2uMpiPbB-rdadxz-3" value="CMD" style="ellipse;whiteSpace=wrap;html=1;aspect=fixed;" parent="1" vertex="1">
          <mxGeometry x="670" y="181.25" width="40" height="40" as="geometry" />
        </mxCell>
        <mxCell id="-QrWi2uMpiPbB-rdadxz-4" value="" style="endArrow=none;html=1;rounded=0;entryX=1;entryY=1;entryDx=0;entryDy=0;exitX=0;exitY=0;exitDx=0;exitDy=0;" parent="1" source="-QrWi2uMpiPbB-rdadxz-3" target="TmrtS8XoBHmU19au0Blr-1" edge="1">
          <mxGeometry width="50" height="50" relative="1" as="geometry">
            <mxPoint x="570" y="210" as="sourcePoint" />
            <mxPoint x="610" y="150" as="targetPoint" />
          </mxGeometry>
        </mxCell>
        <mxCell id="-QrWi2uMpiPbB-rdadxz-7" value="TOKEN" style="swimlane;fontStyle=0;childLayout=stackLayout;horizontal=1;startSize=30;horizontalStack=0;resizeParent=1;resizeParentMax=0;resizeLast=0;collapsible=1;marginBottom=0;whiteSpace=wrap;html=1;" parent="1" vertex="1">
          <mxGeometry x="40" y="40" width="140" height="240" as="geometry" />
        </mxCell>
        <mxCell id="-QrWi2uMpiPbB-rdadxz-8" value="WORD" style="text;strokeColor=none;fillColor=none;align=left;verticalAlign=middle;spacingLeft=4;spacingRight=4;overflow=hidden;points=[[0,0.5],[1,0.5]];portConstraint=eastwest;rotatable=0;whiteSpace=wrap;html=1;" parent="-QrWi2uMpiPbB-rdadxz-7" vertex="1">
          <mxGeometry y="30" width="140" height="30" as="geometry" />
        </mxCell>
        <mxCell id="-QrWi2uMpiPbB-rdadxz-9" value="REDIRECTION" style="text;strokeColor=none;fillColor=none;align=left;verticalAlign=middle;spacingLeft=4;spacingRight=4;overflow=hidden;points=[[0,0.5],[1,0.5]];portConstraint=eastwest;rotatable=0;whiteSpace=wrap;html=1;" parent="-QrWi2uMpiPbB-rdadxz-7" vertex="1">
          <mxGeometry y="60" width="140" height="30" as="geometry" />
        </mxCell>
        <mxCell id="-QrWi2uMpiPbB-rdadxz-20" value="REDIRECTS" style="text;strokeColor=none;fillColor=none;align=left;verticalAlign=middle;spacingLeft=4;spacingRight=4;overflow=hidden;points=[[0,0.5],[1,0.5]];portConstraint=eastwest;rotatable=0;whiteSpace=wrap;html=1;" parent="-QrWi2uMpiPbB-rdadxz-7" vertex="1">
          <mxGeometry y="90" width="140" height="30" as="geometry" />
        </mxCell>
        <mxCell id="-QrWi2uMpiPbB-rdadxz-10" value="PIPE" style="text;strokeColor=none;fillColor=none;align=left;verticalAlign=middle;spacingLeft=4;spacingRight=4;overflow=hidden;points=[[0,0.5],[1,0.5]];portConstraint=eastwest;rotatable=0;whiteSpace=wrap;html=1;" parent="-QrWi2uMpiPbB-rdadxz-7" vertex="1">
          <mxGeometry y="120" width="140" height="30" as="geometry" />
        </mxCell>
        <mxCell id="-QrWi2uMpiPbB-rdadxz-11" value="CMD" style="text;strokeColor=none;fillColor=none;align=left;verticalAlign=middle;spacingLeft=4;spacingRight=4;overflow=hidden;points=[[0,0.5],[1,0.5]];portConstraint=eastwest;rotatable=0;whiteSpace=wrap;html=1;" parent="-QrWi2uMpiPbB-rdadxz-7" vertex="1">
          <mxGeometry y="150" width="140" height="30" as="geometry" />
        </mxCell>
        <mxCell id="-QrWi2uMpiPbB-rdadxz-12" value="SIMPLE_CMD" style="text;strokeColor=none;fillColor=none;align=left;verticalAlign=middle;spacingLeft=4;spacingRight=4;overflow=hidden;points=[[0,0.5],[1,0.5]];portConstraint=eastwest;rotatable=0;whiteSpace=wrap;html=1;" parent="-QrWi2uMpiPbB-rdadxz-7" vertex="1">
          <mxGeometry y="180" width="140" height="30" as="geometry" />
        </mxCell>
        <mxCell id="-QrWi2uMpiPbB-rdadxz-13" value="FILE" style="text;strokeColor=none;fillColor=none;align=left;verticalAlign=middle;spacingLeft=4;spacingRight=4;overflow=hidden;points=[[0,0.5],[1,0.5]];portConstraint=eastwest;rotatable=0;whiteSpace=wrap;html=1;" parent="-QrWi2uMpiPbB-rdadxz-7" vertex="1">
          <mxGeometry y="210" width="140" height="30" as="geometry" />
        </mxCell>
        <mxCell id="-QrWi2uMpiPbB-rdadxz-19" value="더 이상 토큰화&lt;br&gt;시킬 수 없는 하나" style="rounded=0;whiteSpace=wrap;html=1;" parent="1" vertex="1">
          <mxGeometry x="220" y="20" width="140" height="55" as="geometry" />
        </mxCell>
        <mxCell id="-QrWi2uMpiPbB-rdadxz-18" style="edgeStyle=orthogonalEdgeStyle;rounded=0;orthogonalLoop=1;jettySize=auto;html=1;" parent="1" source="-QrWi2uMpiPbB-rdadxz-8" target="-QrWi2uMpiPbB-rdadxz-19" edge="1">
          <mxGeometry relative="1" as="geometry">
            <mxPoint x="210" y="85" as="targetPoint" />
          </mxGeometry>
        </mxCell>
        <mxCell id="-QrWi2uMpiPbB-rdadxz-21" value="ls -a -l &amp;lt;&amp;lt; a &amp;lt; b &amp;gt; c | cat &amp;lt;&amp;lt; x &amp;gt; y" style="text;html=1;align=center;verticalAlign=middle;whiteSpace=wrap;rounded=0;" parent="1" vertex="1">
          <mxGeometry x="40" y="320" width="190" height="30" as="geometry" />
        </mxCell>
        <mxCell id="-QrWi2uMpiPbB-rdadxz-25" value="리다이렉션 연산자 하나" style="rounded=0;whiteSpace=wrap;html=1;" parent="1" vertex="1">
          <mxGeometry x="230" y="80" width="130" height="35" as="geometry" />
        </mxCell>
        <mxCell id="-QrWi2uMpiPbB-rdadxz-24" style="edgeStyle=orthogonalEdgeStyle;rounded=0;orthogonalLoop=1;jettySize=auto;html=1;" parent="1" source="-QrWi2uMpiPbB-rdadxz-9" target="-QrWi2uMpiPbB-rdadxz-25" edge="1">
          <mxGeometry relative="1" as="geometry">
            <mxPoint x="220" y="115" as="targetPoint" />
          </mxGeometry>
        </mxCell>
        <mxCell id="-QrWi2uMpiPbB-rdadxz-27" value="리다이렉션 연산자들의 집합" style="rounded=0;whiteSpace=wrap;html=1;" parent="1" vertex="1">
          <mxGeometry x="230" y="122.5" width="130" height="45" as="geometry" />
        </mxCell>
        <mxCell id="-QrWi2uMpiPbB-rdadxz-26" style="edgeStyle=orthogonalEdgeStyle;rounded=0;orthogonalLoop=1;jettySize=auto;html=1;" parent="1" source="-QrWi2uMpiPbB-rdadxz-20" target="-QrWi2uMpiPbB-rdadxz-27" edge="1">
          <mxGeometry relative="1" as="geometry">
            <mxPoint x="230" y="145" as="targetPoint" />
          </mxGeometry>
        </mxCell>
        <mxCell id="MDbn7u2HAEiCGLMz-KhQ-1" value="ls -a -l &amp;lt;&amp;lt; a &amp;lt; b &amp;gt; c | cat &amp;lt;&amp;lt; x &amp;gt; y" style="text;html=1;align=center;verticalAlign=middle;whiteSpace=wrap;rounded=0;" vertex="1" parent="1">
          <mxGeometry x="620" y="101.25" width="190" height="37.5" as="geometry" />
        </mxCell>
        <mxCell id="MDbn7u2HAEiCGLMz-KhQ-3" value="ls -a -l &amp;lt;&amp;lt; a &amp;lt; b &amp;gt; c" style="text;html=1;align=center;verticalAlign=middle;whiteSpace=wrap;rounded=0;" vertex="1" parent="1">
          <mxGeometry x="547.5" y="181.25" width="105" height="37.5" as="geometry" />
        </mxCell>
        <mxCell id="MDbn7u2HAEiCGLMz-KhQ-4" value="cat &amp;lt;&amp;lt; x &amp;gt; y" style="text;html=1;align=center;verticalAlign=middle;whiteSpace=wrap;rounded=0;" vertex="1" parent="1">
          <mxGeometry x="710" y="181.25" width="80" height="37.5" as="geometry" />
        </mxCell>
        <mxCell id="MDbn7u2HAEiCGLMz-KhQ-8" value="" style="endArrow=none;html=1;rounded=0;entryX=0;entryY=1;entryDx=0;entryDy=0;exitX=0.5;exitY=0;exitDx=0;exitDy=0;" edge="1" parent="1" source="MDbn7u2HAEiCGLMz-KhQ-19" target="-QrWi2uMpiPbB-rdadxz-2">
          <mxGeometry width="50" height="50" relative="1" as="geometry">
            <mxPoint x="380" y="280" as="sourcePoint" />
            <mxPoint x="596" y="144" as="targetPoint" />
          </mxGeometry>
        </mxCell>
        <mxCell id="MDbn7u2HAEiCGLMz-KhQ-15" value="" style="endArrow=none;html=1;rounded=0;entryX=1;entryY=1;entryDx=0;entryDy=0;exitX=0.574;exitY=0.008;exitDx=0;exitDy=0;exitPerimeter=0;" edge="1" parent="1" source="MDbn7u2HAEiCGLMz-KhQ-21" target="-QrWi2uMpiPbB-rdadxz-2">
          <mxGeometry width="50" height="50" relative="1" as="geometry">
            <mxPoint x="570" y="280" as="sourcePoint" />
            <mxPoint x="516" y="224" as="targetPoint" />
          </mxGeometry>
        </mxCell>
        <mxCell id="MDbn7u2HAEiCGLMz-KhQ-16" value="" style="endArrow=none;html=1;rounded=0;entryX=0;entryY=1;entryDx=0;entryDy=0;exitX=0.5;exitY=0;exitDx=0;exitDy=0;" edge="1" parent="1" source="MDbn7u2HAEiCGLMz-KhQ-22" target="-QrWi2uMpiPbB-rdadxz-3">
          <mxGeometry width="50" height="50" relative="1" as="geometry">
            <mxPoint x="710" y="280" as="sourcePoint" />
            <mxPoint x="544" y="224" as="targetPoint" />
          </mxGeometry>
        </mxCell>
        <mxCell id="MDbn7u2HAEiCGLMz-KhQ-17" value="" style="endArrow=none;html=1;rounded=0;entryX=1;entryY=1;entryDx=0;entryDy=0;exitX=0.5;exitY=0;exitDx=0;exitDy=0;" edge="1" parent="1" source="MDbn7u2HAEiCGLMz-KhQ-24" target="-QrWi2uMpiPbB-rdadxz-3">
          <mxGeometry width="50" height="50" relative="1" as="geometry">
            <mxPoint x="885.8578643762689" y="285.85786437626894" as="sourcePoint" />
            <mxPoint x="700" y="231" as="targetPoint" />
          </mxGeometry>
        </mxCell>
        <mxCell id="MDbn7u2HAEiCGLMz-KhQ-19" value="REDIRECTS&lt;br&gt;(&amp;lt;&amp;lt; a &amp;lt; b &amp;gt; c)" style="rounded=1;whiteSpace=wrap;html=1;" vertex="1" parent="1">
          <mxGeometry x="400" y="280" width="90" height="40" as="geometry" />
        </mxCell>
        <mxCell id="MDbn7u2HAEiCGLMz-KhQ-21" value="SIMPLE_CMD&lt;br&gt;(ls -a -l)" style="rounded=1;whiteSpace=wrap;html=1;" vertex="1" parent="1">
          <mxGeometry x="500" y="280" width="90" height="40" as="geometry" />
        </mxCell>
        <mxCell id="MDbn7u2HAEiCGLMz-KhQ-22" value="REDIRECTS&lt;br&gt;(&amp;lt;&amp;lt; x &amp;gt; y)" style="rounded=1;whiteSpace=wrap;html=1;" vertex="1" parent="1">
          <mxGeometry x="610" y="280" width="90" height="40" as="geometry" />
        </mxCell>
        <mxCell id="MDbn7u2HAEiCGLMz-KhQ-24" value="SIMPLE_CMD&lt;br&gt;(ls -a -l)" style="rounded=1;whiteSpace=wrap;html=1;" vertex="1" parent="1">
          <mxGeometry x="710" y="280" width="90" height="40" as="geometry" />
        </mxCell>
        <mxCell id="MDbn7u2HAEiCGLMz-KhQ-25" value="REDIRECTION&lt;br&gt;(&amp;lt;&amp;lt; a &amp;lt; b &amp;gt; c)" style="rounded=1;whiteSpace=wrap;html=1;" vertex="1" parent="1">
          <mxGeometry x="310" y="400" width="90" height="40" as="geometry" />
        </mxCell>
        <mxCell id="MDbn7u2HAEiCGLMz-KhQ-26" value="REDIRECTION&lt;br&gt;(&amp;lt;&amp;lt; a &amp;lt; b &amp;gt; c)" style="rounded=1;whiteSpace=wrap;html=1;" vertex="1" parent="1">
          <mxGeometry x="450" y="400" width="90" height="40" as="geometry" />
        </mxCell>
        <mxCell id="MDbn7u2HAEiCGLMz-KhQ-27" value="REDIRECTION&lt;br&gt;(&amp;lt;&amp;lt; a &amp;lt; b &amp;gt; c)" style="rounded=1;whiteSpace=wrap;html=1;" vertex="1" parent="1">
          <mxGeometry x="580" y="400" width="90" height="40" as="geometry" />
        </mxCell>
      </root>
    </mxGraphModel>
  </diagram>
</mxfile>
